<?xml version="1.0" encoding="UTF-8"?>
<svg width="240" height="60" viewBox="0 0 240 60" fill="none" xmlns="http://www.w3.org/2000/svg">
  <!-- Logo Container -->
  <g id="BigDreamers-Logo">
    <!-- B -->
    <path d="M20 10H35C38.3137 10 41 12.6863 41 16V18C41 21.3137 38.3137 24 35 24H20V10Z" fill="#048abf"/>
    <path d="M20 24H37C40.3137 24 43 26.6863 43 30V34C43 37.3137 40.3137 40 37 40H20V24Z" fill="#048abf"/>
    <path d="M20 10V40H15V10H20Z" fill="#048abf"/>
    
    <!-- i -->
    <path d="M50 40V20H55V40H50Z" fill="#048abf"/>
    <circle cx="52.5" cy="15" r="2.5" fill="#048abf"/>
    
    <!-- g -->
    <path d="M62 40V20H67V23C68.5 20.5 71 19 74 19C79 19 83 23 83 30C83 37 79 41 74 41C71 41 68.5 39.5 67 37V40H62Z" fill="#048abf"/>
    <path d="M74 36C77 36 78 33 78 30C78 27 77 24 74 24C71 24 70 27 70 30C70 33 71 36 74 36Z" fill="#048abf"/>
    <path d="M67 40V45C67 48 69 50 72 50H78V45H73C72.4477 45 72 44.5523 72 44V40H67Z" fill="#048abf"/>
    
    <!-- D -->
    <path d="M90 10H105C112.732 10 119 16.268 119 24V26C119 33.732 112.732 40 105 40H90V10Z" fill="#feba2b"/>
    <path d="M90 10V40H85V10H90Z" fill="#feba2b"/>
    <path d="M105 35C109.971 35 114 30.9706 114 26V24C114 19.0294 109.971 15 105 15H95V35H105Z" fill="#feba2b"/>
    
    <!-- r -->
    <path d="M123 40V20H128V23C129 21 131 20 133 20H135V25H133C130 25 128 27 128 30V40H123Z" fill="#feba2b"/>
    
    <!-- e -->
    <path d="M138 30C138 24 142 19 148 19C154 19 158 24 158 30V32H143C143 34 145 36 148 36C150 36 151.5 35 152 33.5H157C156 37 152.5 41 148 41C142 41 138 36 138 30Z" fill="#feba2b"/>
    <path d="M143 28H153C153 26 151 24 148 24C145 24 143 26 143 28Z" fill="#feba2b"/>
    
    <!-- a -->
    <path d="M160 30C160 24 164 19 170 19C173 19 175 20 176 22V20H181V40H176V38C175 40 173 41 170 41C164 41 160 36 160 30Z" fill="#feba2b"/>
    <path d="M170 36C173 36 176 34 176 30C176 26 173 24 170 24C167 24 165 26 165 30C165 34 167 36 170 36Z" fill="#feba2b"/>
    
    <!-- m -->
    <path d="M185 40V20H190V22C191 20 193 19 195 19C198 19 200 20 201 23C202 20 204 19 207 19C211 19 214 22 214 27V40H209V28C209 26 208 24 205 24C202 24 201 26 201 28V40H196V28C196 26 195 24 192 24C189 24 188 26 188 28V40H185Z" fill="#feba2b"/>
    
    <!-- e -->
    <path d="M217 30C217 24 221 19 227 19C233 19 237 24 237 30V32H222C222 34 224 36 227 36C229 36 230.5 35 231 33.5H236C235 37 231.5 41 227 41C221 41 217 36 217 30Z" fill="#feba2b"/>
    <path d="M222 28H232C232 26 230 24 227 24C224 24 222 26 222 28Z" fill="#feba2b"/>
    
    <!-- r -->
    <path d="M240 40V20H245V23C246 21 248 20 250 20H252V25H250C247 25 245 27 245 30V40H240Z" fill="#feba2b"/>
    
    <!-- s -->
    <path d="M254 30C254 24 258 19 264 19C269.5 19 273 22.5 274 26H269C268.5 24.5 266.5 23 264 23C261 23 259 26 259 30C259 34 261 37 264 37C266.5 37 268.5 35.5 269 34H274C273 37.5 269.5 41 264 41C258 41 254 36 254 30Z" fill="#feba2b"/>
  </g>
</svg>